<svg width="1366" height="1360" viewBox="0 0 1366 1360" fill="none" xmlns="http://www.w3.org/2000/svg">
<path opacity="0.3" fill-rule="evenodd" clip-rule="evenodd" d="M638.896 569.435L605.072 476.908C604.705 475.869 604.049 474.095 603.104 471.589L603.989 471.233L605.951 476.591C614.556 500.428 620.004 515.479 622.294 521.743C623.878 526.078 631.64 547.292 639.693 569.145L638.896 569.435ZM655.86 564.898L654.068 552.19L654.887 552.075C655.476 556.207 656.086 560.471 656.696 564.756L655.86 564.898ZM679.086 563.508L679.581 556.464L680.416 556.508C680.257 558.84 680.092 561.198 679.933 563.557L679.086 563.508ZM747.482 595.383L752.611 591.005L753.392 591.902L748.301 596.281C748.032 595.969 747.757 595.673 747.482 595.383ZM767.602 627.127L772.484 625.37L811.387 611.337L811.882 612.497C794.406 618.791 778.497 624.538 768.069 628.254C767.904 627.871 767.756 627.482 767.602 627.099V627.127ZM772.121 686.235L805.879 694.062L891.328 713.885L890.877 715.051C841.265 703.557 787.777 691.15 784.347 690.274C782.741 689.864 778.063 688.753 771.868 687.302C771.956 686.93 772.038 686.575 772.121 686.219V686.235ZM765.92 704.843L768.3 705.938L767.904 706.973L765.469 705.829C765.617 705.473 765.76 705.15 765.92 704.811V704.843ZM753.952 724.94L758.62 728.454L757.91 729.324C756.564 728.301 755.002 727.135 753.276 725.811C753.507 725.497 753.733 725.196 753.952 724.908V724.94ZM725.955 750.029L735.454 765.129L734.707 765.578C731.865 761.046 728.368 755.496 725.202 750.478L725.955 750.029ZM708.98 758.238C716.126 777.772 723.558 797.983 723.558 797.983L744.387 854.772L743.464 855.122C731.837 823.471 718.66 787.552 717.907 785.302C717.094 782.878 712.196 769.524 708.155 758.539L708.98 758.238ZM684.952 763.925L685.578 768.342L684.715 768.446C684.501 766.951 684.286 765.468 684.083 764.018L684.952 763.925ZM648.016 761.325C646.466 767.931 645.003 774.187 643.706 779.725L642.574 779.49C643.382 776.206 645.025 769.261 646.971 761.041L648.016 761.325ZM609.7 741.945C595.408 760.756 583.616 776.277 583.616 776.277C583.616 776.277 539.688 834.062 509.992 873.15L509.041 872.4C543.311 827.275 593.148 761.632 595.897 758.222C597.354 756.388 602.592 749.536 608.903 741.256L609.7 741.945ZM595.446 727.803C578.24 742.624 564.321 754.621 564.321 754.621L518.458 794.152L517.65 793.2C549.198 765.999 577.806 741.354 580.054 739.504C581.742 738.114 587.558 733.134 594.753 726.916C594.995 727.239 595.226 727.524 595.463 727.803H595.446ZM577.91 696.541C549.627 706.672 502.598 723.638 502.598 723.638L407.838 757.653L407.513 756.722L408.063 756.52C420.465 752.065 537.654 709.791 540.947 708.609L577.531 695.397C577.668 695.78 577.795 696.169 577.927 696.541H577.91ZM573.182 675.782C552.914 678.518 520.811 682.962 503.082 685.409L502.945 684.314L530.931 680.445L573.05 674.594C573.105 674.977 573.155 675.371 573.199 675.782H573.182ZM575.002 641.581C555.465 637.005 522.537 629.36 499.421 623.996L499.652 622.901L521.091 627.871L575.282 640.399C575.2 640.793 575.112 641.187 575.007 641.581H575.002ZM582.451 620.356C551.666 605.924 489.345 576.851 489.345 576.851L376.102 523.878L376.47 522.964L382.127 525.618C396.348 532.252 530.414 594.765 534.174 596.527C535.593 597.189 556.861 607.09 583 619.273L582.451 620.356ZM592.142 604.337L581.907 596.598L582.588 595.624L592.873 603.363L592.142 604.337ZM419.156 879.274L419.393 879.553C391.132 903.914 341.277 946.872 331.921 954.933C319.014 966.038 207.058 1062.37 198.444 1069.77L129.311 1129.26L128.761 1128.39C128.761 1128.39 188.296 1077.38 195.338 1071.32C200.032 1067.28 210.343 1058.37 226.27 1044.6C282.785 995.644 313.458 969.088 318.288 964.933C322.818 961.03 336.759 949.094 347.258 940.063L347.115 939.904L418.579 878.059L419.426 879.033L419.156 879.274ZM530.623 498.385L530.359 498.084L531.338 497.241L563.683 534.282L562.705 535.13L562.04 534.37L561.924 534.474L539.518 508.707L530.585 498.417L530.623 498.385ZM843.249 514.311L830.765 525.082L789.701 560.618L788.849 559.644L842.721 513.036L843.573 514.01L843.249 514.311ZM424.164 643.256L424.236 642.238L508.926 648.258L508.849 649.352L491.637 648.127L424.164 643.256ZM293.463 633.951L292.836 633.913C232.653 629.808 199.682 627.517 193.925 627.039C185.283 626.311 119.779 621.654 114.149 621.249C110.393 620.975 100.242 620.194 83.6949 618.906L83.9478 617.554C136.552 621.25 167.447 623.44 176.631 624.122L293.551 632.589L293.463 633.951ZM920.853 679.044C905.862 677.949 855.634 674.413 815.208 671.524L815.384 670.276L917.72 677.604L921.018 677.84L920.853 679.044ZM968.833 682.563L969.014 681.277C997.599 683.324 1028.93 685.562 1036.46 686.109L1184.57 696.869L1261.29 702.441C1261.16 703.125 1261.1 703.464 1261.1 703.464C1261.1 703.464 1195.13 698.539 1187.35 697.947L1152.96 695.534C1090.04 691.214 1055.9 688.871 1050.52 688.507C1042.47 687.926 1007.84 685.305 1004.6 685.173C1003.06 685.086 986.528 683.887 968.833 682.59V682.563ZM661.385 816.46C662.342 802.69 663.034 792.795 663.155 791.629C663.353 789.599 664.018 780.196 664.678 770.558H665.552C664.288 788.75 663.139 805.481 663.139 805.481C663.139 805.481 662.847 809.707 662.38 816.46H661.385ZM657.466 873.522V874.551H658.4C657.064 893.844 655.948 909.983 655.855 911.286C655.618 914.652 650.358 990.53 649.616 1001.4C648.873 1012.27 642.233 1106.57 641.722 1113.83C641.381 1118.66 640.017 1138.08 637.632 1172.06L636.818 1172C636.818 1172 640.457 1121.94 640.875 1116.01C641.15 1112.05 641.74 1103.35 642.645 1089.91C645.808 1042.17 647.53 1016.27 647.812 1012.19C648.241 1006.08 650.171 979.786 650.259 977.334C650.347 974.883 654.041 923.474 654.514 916.808C654.662 914.263 655.932 895.65 657.466 873.522V873.522ZM682.203 519.095L684.853 481.331L685.721 481.374C684.57 496.9 683.821 507.165 683.473 512.171C683.385 513.37 683.22 515.783 682.989 519.111L682.203 519.095ZM687.359 443.972C687.491 441.848 687.632 439.568 687.783 437.131C690.788 391.475 692.47 366.457 692.829 362.079C693.379 355.511 696.782 305.8 697.084 301.525C697.282 298.679 697.855 290.972 698.804 278.402L699.904 278.473C697.199 318.39 695.603 341.836 695.116 348.812L688.426 444.043L687.359 443.972ZM975.605 398.984L976.397 399.892L969.344 405.962C939.292 431.659 920.311 447.907 912.398 454.704C908.781 457.813 895.857 468.934 879.547 483.022L878.876 482.25L968.701 405.004C970.035 403.844 972.336 401.837 975.605 398.984V398.984ZM1011.77 367.557C1058.86 326.772 1084.84 304.324 1089.71 300.212C1097.57 293.584 1156.52 242.745 1161.6 238.367C1164.98 235.448 1174.16 227.603 1189.13 214.833L1189.88 215.977C1142.56 256.842 1114.77 280.843 1106.49 287.98L1012.72 368.663L1011.77 367.557ZM814.361 823.214L872.373 889.93C875.825 893.909 953.765 983.519 964.924 996.381L1080.27 1129.28L1140.02 1198.11L1139.14 1198.65C1139.14 1198.65 1087.9 1139.42 1081.85 1132.41C1077.79 1127.73 1068.85 1117.47 1055.01 1101.6C1005.84 1045.33 979.155 1014.78 974.962 1009.98C968.701 1002.76 941.797 971.61 939.23 968.775C936.663 965.94 883.967 905.107 877.112 897.231C873.753 893.356 843.656 858.789 813.416 824.035L814.361 823.214ZM463.139 420.717L412.565 362.429C409.424 358.817 400.079 348.172 384.529 330.494C337.488 276.676 311.743 247.162 307.294 241.951C300.653 234.131 249.573 175.427 245.175 170.375C242.243 167.008 234.364 157.871 221.537 142.966L222.692 142.222C263.756 189.341 287.867 217.015 295.024 225.242L413.544 361.767C439.359 391.686 455.678 410.585 462.502 418.462L463.893 420.066L463.139 420.717ZM284.667 802.241C247.264 815.833 226.375 823.387 221.999 824.905C213.808 827.74 152.064 850.01 146.753 851.915C143.213 853.184 133.622 856.583 117.981 862.111L117.657 860.775C167.219 842.846 196.334 832.325 205.002 829.213L284.161 800.791L284.667 802.241ZM908.979 577.475L908.501 576.381C928.335 569.266 1003.84 542.037 1015.83 537.736L1155.51 487.559L1227.87 461.584L1228.12 462.596C1228.12 462.596 1165.86 484.779 1158.49 487.422C1153.57 489.184 1142.78 493.09 1126.1 499.14C1066.85 520.667 1034.69 532.343 1029.63 534.167C1022.04 536.904 989.326 548.518 986.314 549.711C983.301 550.904 919.385 573.737 911.101 576.715L908.979 577.475ZM764.403 909.343C772.28 930.819 788.326 974.554 791.191 982.397C794.934 992.637 827.412 1081.46 829.907 1088.3L849.961 1143.15L849.192 1143.43C849.192 1143.43 832.068 1096.22 830.023 1090.64C828.667 1086.91 825.652 1078.72 820.98 1066.07C804.36 1021.2 795.352 996.835 793.956 992.993C791.85 987.241 782.873 962.437 781.95 960.155C781.191 958.272 768.976 924.739 763.496 909.682L764.403 909.343ZM575.673 397.643C572.217 388.258 570.164 382.65 569.516 380.819C567.317 374.601 550.138 327.801 548.665 323.779C547.686 321.097 545.062 313.821 540.793 301.952L541.81 301.586C555.648 339.152 563.768 361.22 566.168 367.787L576.904 397.161L575.673 397.643ZM584.248 848.543L585.381 849.091L542.024 941.092C539.781 945.848 489.251 1053.2 481.989 1068.57C474.727 1083.94 411.807 1217.28 406.969 1227.53L368.109 1309.87L367.241 1309.32C367.241 1309.32 400.774 1238.61 404.743 1230.23C407.381 1224.64 413.164 1212.32 422.092 1193.29C453.745 1125.68 470.929 1088.99 473.645 1083.22C477.718 1074.59 495.358 1037.45 496.903 1033.96C498.448 1030.48 532.844 957.779 537.297 948.355C539.693 943.27 562.914 893.893 584.248 848.543V848.543ZM756.564 483.131L757.548 483.679L736.73 527.928C736.35 528.727 733.041 535.776 728.033 546.432L727.011 545.885C741.023 516.155 756.487 483.268 756.487 483.268L756.564 483.131ZM776.997 439.823L839.066 308.306C841.107 303.983 847.077 291.161 856.976 269.842C887.221 205.162 903.832 169.744 906.808 163.589C911.277 154.35 944.365 84.0109 947.218 77.9687C949.12 73.9552 954.3 63.0748 962.758 45.3276L963.913 46.0774C937.39 102.563 921.8 135.742 917.142 145.615C912.484 155.489 886.791 209.934 840.061 308.952C823.089 344.604 812.386 367.134 807.951 376.544C805.109 382.564 792.087 410.231 777.931 440.316L776.997 439.823ZM282.556 480.296L274.97 476.804C210.004 446.696 174.43 430.158 168.247 427.191C158.968 422.742 88.3181 389.8 82.2492 386.965C78.2179 385.071 67.2894 379.912 49.4638 371.487L50.2115 370.343C106.968 396.734 140.298 412.254 150.2 416.902L283.067 479.059L282.556 480.296ZM972.543 802.614L956.513 795.083C951.604 792.784 905.543 771.324 861.511 750.784L861.956 749.618L949.219 790.349L973.022 801.464L972.543 802.614ZM1066.16 846.349L1066.62 845.166C1071.48 847.438 1075.17 849.156 1077.22 850.092L1236.89 924.782L1319.59 963.471C1319.21 964.051 1319.04 964.336 1319.04 964.336C1319.04 964.336 1248.02 930.951 1239.6 926.999C1233.98 924.372 1221.62 918.616 1202.5 909.732C1134.58 878.229 1097.74 861.126 1091.96 858.422C1087.73 856.479 1076.74 851.313 1066.17 846.349H1066.16ZM373.26 703.191L328.32 709.342C324.319 709.89 312.49 711.583 292.836 714.421C233.1 722.857 200.369 727.433 194.645 728.148C186.042 729.242 120.982 738.229 115.408 738.995C111.681 739.502 101.588 740.841 85.1297 743.012L85.0967 741.633C137.313 734.361 167.987 730.098 177.12 728.843L328.293 708.155C347.236 705.637 362.183 703.645 373.134 702.178L373.26 703.191ZM970.201 621.27C949.818 624.051 925.57 627.335 920.567 628.019C917.269 628.473 893.373 631.784 864.831 635.73L864.683 634.499L913.206 627.811L970.042 619.968L970.201 621.27ZM1066.59 607.971L1066.44 606.718L1178.25 591.393L1254.46 580.994C1254.46 581.684 1254.48 582.034 1254.48 582.034C1254.48 582.034 1188.95 590.84 1181.2 591.886C1176.02 592.597 1164.64 594.183 1147.05 596.642L1066.59 607.971ZM643.052 474.166L642.051 467.052C641.623 464.016 640.298 455.049 638.077 440.152C631.48 394.871 627.9 370.06 627.335 365.718C626.494 359.184 619.452 309.85 618.853 305.608C618.45 302.784 617.402 295.122 615.709 282.622L616.808 282.474C622.496 322.069 625.831 345.331 626.813 352.26C627.795 359.189 633.19 397.413 642.997 466.931C643.338 469.394 643.664 471.766 643.975 474.046L643.052 474.166ZM692.796 826.016L693.786 825.896C698.029 855.735 705.495 908.199 705.83 910.585C706.303 913.924 717.028 989.227 718.55 1000.03C720.073 1010.82 733.288 1104.43 734.305 1111.63C734.983 1116.42 737.703 1135.69 742.463 1169.43L741.655 1169.54C741.655 1169.54 734.762 1119.82 733.932 1113.94C733.378 1110.01 732.138 1101.38 730.21 1088.04C723.335 1040.69 719.611 1015 719.04 1010.96C718.182 1004.9 714.581 978.774 714.153 976.36C713.724 973.947 706.605 922.894 705.676 916.277C705.06 911.921 697.815 861.312 692.796 826.016V826.016ZM430.92 977.176C415.748 997.136 402.175 1014.99 398.124 1020.31L291.544 1160.28L236.341 1232.77L235.605 1232.03C235.605 1232.03 283.188 1169.81 288.807 1162.43C292.556 1157.5 300.783 1146.66 313.489 1129.89C358.566 1070.3 383.029 1037.97 386.877 1032.91C392.665 1025.31 417.661 992.637 419.92 989.517C420.69 988.423 426.929 980.213 435.049 969.574L429.991 976.503L430.92 977.176ZM768.135 531.858L788.849 504.613L831.886 448.098L832.804 448.586L769.059 532.525L768.135 531.858ZM861.236 409.546L906.137 350.575C909.04 346.765 917.557 335.454 931.688 316.642C974.782 259.635 998.42 228.428 1002.6 223.02C1008.9 214.909 1055.92 152.966 1060 147.64C1062.7 144.094 1070.05 134.523 1082.03 118.929L1082.99 119.898C1045.25 169.669 1023.07 198.899 1016.48 207.586L906.973 351.412C883.734 381.725 868.78 401.257 862.11 410.006L861.236 409.546ZM965.27 884.118L964.451 885.119C945.491 870.797 923.931 854.471 919.336 851.017C916.131 848.598 893.026 831.21 865.491 810.478L866.271 809.521L913.19 844.876C915.284 846.453 939.588 864.771 965.27 884.118ZM1072.88 965.266L1166.51 1035.96L1239.32 1090.92L1238.59 1091.64C1238.59 1091.64 1176.11 1044.25 1168.71 1038.68C1163.76 1034.95 1152.87 1026.76 1136.02 1014.11L1072.13 966.197L1072.88 965.266ZM526.555 554.844L507.997 540.861L375.124 440.579L375.745 439.692C394.915 454.246 407.608 463.872 413.824 468.568C423.186 475.606 492 527.435 527.182 553.93L526.555 554.844ZM292.682 378.761C252.19 348.407 229.68 331.488 225.154 328.004C217.008 321.732 154.79 274.916 149.441 270.855C145.879 268.162 136.267 260.853 120.603 248.93L121.576 247.966C171.568 285.548 200.925 307.622 209.647 314.19L293.551 377.529L292.682 378.761ZM345.703 864.738L344.955 863.539L377.356 843.519C405.765 826.115 423.704 815.105 431.173 810.489C437.484 806.587 473.804 784.071 504.836 764.822L505.418 765.753L377.85 844.564C374.416 846.688 364.302 853.026 347.506 863.578L345.681 864.716L345.703 864.738ZM234.5 933.698C217.167 944.42 198.185 956.187 195.47 957.861C192.278 959.835 183.605 965.146 169.451 973.793L168.858 972.551C198.612 954.063 220.203 940.654 233.631 932.324L234.5 933.698ZM956.953 486.36C955.249 487.422 954.056 488.172 953.611 488.473C950.912 490.263 893.142 525.826 885.676 530.451C880.295 533.773 812.498 575.844 773.066 600.249L772.456 599.154L878.865 533.248L956.338 485.26L956.953 486.36ZM997.797 461.152L997.16 460.002L1106.13 392.684L1171.49 352.293L1171.93 353.234C1171.93 353.234 1115.67 387.819 1109.01 391.929C1104.57 394.669 1094.82 400.726 1079.76 410.099C1036.23 437.224 1008.91 454.241 997.797 461.152V461.152ZM794.461 858.882L793.626 859.38C785.572 846.595 775.122 830.001 765.59 814.873L766.442 814.364C775.688 829.043 786.611 846.398 794.461 858.882ZM825.455 908.139C837.131 926.698 850.016 947.184 853.1 952.093L913.085 1047.68L944.156 1097.18L943.463 1097.61C943.463 1097.61 916.851 1054.98 913.69 1049.94C911.579 1046.57 906.919 1039.19 899.711 1027.79C874.083 987.315 860.184 965.35 858.014 961.895C854.76 956.707 840.792 934.3 839.417 932.264C838.747 931.268 831.859 920.295 824.575 908.675L825.455 908.139ZM603.368 556.557L566.097 497.181L566.905 496.715C579.929 517.651 588.188 530.903 591.68 536.471C593.121 538.77 597.876 546.323 604.066 556.174L603.368 556.557ZM523.818 430.519C516.253 418.551 511.856 411.564 510.624 409.557C507.188 403.931 480.599 361.712 478.317 358.084C476.8 355.661 472.714 349.093 466.058 338.381L466.976 337.833C488.361 371.668 500.916 391.555 504.643 397.495L524.983 429.868L523.818 430.519ZM613.895 901.747C617.6 885.875 621.541 869.023 625.274 853.075L626.5 853.332L615.137 902.004L613.895 901.747ZM603.45 946.395L597.244 975.479L597.859 975.61C590.543 1006.86 571.83 1086.84 568.647 1100.4C564.761 1116.93 531.052 1260.38 528.463 1271.42C526.729 1278.77 519.79 1308.3 507.645 1360L506.677 1359.63C506.677 1359.63 524.725 1283.52 526.841 1274.49C528.256 1268.48 531.34 1255.24 536.093 1234.77C552.925 1162.09 562.069 1122.65 563.524 1116.46C565.723 1107.15 575.205 1067.2 575.98 1063.44C576.756 1059.68 595.221 981.51 597.617 971.369C598.134 969.234 600.295 959.892 603.467 946.395H603.45ZM712.003 483.465L713.103 483.657C708.513 503.316 705.176 517.589 704.89 518.815C704.665 519.762 702.537 528.902 699.393 542.399L698.249 542.202C703.252 520.928 708.754 497.416 712.02 483.465H712.003ZM731.375 400.959L759.164 282.84C760.263 278.188 763.426 264.409 768.652 241.503C784.726 171.981 793.576 133.898 795.203 127.253C797.65 117.292 815.323 41.6442 816.851 35.1478C817.867 30.8131 820.661 19.0972 825.235 0L826.516 0.492572C812.369 61.2504 804.052 96.9327 801.564 107.539C799.075 118.146 785.308 176.72 760.263 283.262C751.101 321.646 745.337 345.899 742.969 356.02C741.831 360.869 737.631 378.821 732.42 401.134L731.375 400.959ZM398.982 600.626L284.09 573.863C279.417 572.768 265.577 569.62 242.57 564.417C172.74 548.414 134.489 539.607 127.815 537.998C117.811 535.563 41.8282 517.967 35.303 516.446C30.9493 515.424 19.1816 512.636 0 508.083L0.494748 506.802C61.521 520.886 97.361 529.167 108.015 531.644L284.513 572.758C323.067 581.879 347.427 587.619 357.593 589.976L399.196 599.619L398.982 600.626ZM992.284 738.546L992.734 737.386C1029.16 745.836 1093.23 760.701 1105.25 763.498L1277.03 803.511L1366 824.238L1365.63 825.201C1365.63 825.201 1289.18 807.233 1280.12 805.126C1274.07 803.721 1260.78 800.651 1240.22 795.915C1167.22 779.156 1127.6 770.055 1121.39 768.61C1112.04 766.42 1071.91 756.974 1068.13 756.202C1065.25 755.617 1018.6 744.709 992.284 738.557V738.546Z" fill="white"/>
</svg>
