<svg width="21" height="20" viewBox="0 0 21 20" fill="none" xmlns="http://www.w3.org/2000/svg">
<path fill-rule="evenodd" clip-rule="evenodd" d="M5.9273 0.0633122C6.99265 0.0157872 7.33324 0.00390625 10.0422 0.00390625C12.7511 0.00390625 13.0917 0.0157872 14.161 0.0593522C15.2263 0.106877 15.9511 0.277174 16.5847 0.52272C17.2382 0.78014 17.7966 1.12074 18.3511 1.67519C18.9055 2.22965 19.2501 2.7841 19.5035 3.44153C19.7491 4.07915 19.9194 4.80391 19.9669 5.86529C20.0144 6.93064 20.0263 7.26727 20.0263 9.9801C20.0263 12.693 20.0144 13.0296 19.9669 14.095C19.9194 15.1603 19.7491 15.8851 19.5035 16.5188C19.2461 17.1722 18.9055 17.7306 18.3511 18.2851C17.7966 18.8396 17.2422 19.1841 16.5847 19.4376C15.9471 19.6831 15.2224 19.8534 14.161 19.9009C13.0956 19.9485 12.759 19.9603 10.0461 19.9603C7.33324 19.9603 6.99661 19.9485 5.93126 19.9009C4.86592 19.8534 4.14117 19.6831 3.5075 19.4376C2.85404 19.1801 2.29562 18.8396 1.74117 18.2851C1.18671 17.7306 0.84216 17.1762 0.58869 16.5188C0.343146 15.8811 0.172849 15.1564 0.125324 14.095C0.077799 13.0296 0.065918 12.6891 0.065918 9.9801C0.065918 7.27123 0.077799 6.93064 0.125324 5.86925C0.172849 4.80391 0.343146 4.07915 0.58869 3.44549C0.84612 2.79203 1.18671 2.23361 1.74117 1.67915C2.29562 1.1247 2.85008 0.78014 3.5075 0.52668C4.14117 0.281134 4.86592 0.110837 5.9273 0.0633122ZM14.0738 1.86133C13.0204 1.81381 12.7075 1.80193 10.0422 1.80193C7.37681 1.80193 7.06394 1.80985 6.01047 1.86133C5.03621 1.9049 4.50948 2.07123 4.15701 2.20589C3.68968 2.3841 3.35701 2.60193 3.00849 2.95044C2.65998 3.29896 2.44612 3.63163 2.26394 4.09896C2.12532 4.45143 1.96295 4.97816 1.91938 5.95242C1.87186 7.00589 1.85998 7.31876 1.85998 9.9841C1.85998 12.6495 1.87186 12.9623 1.91938 14.0158C1.96295 14.99 2.12928 15.5168 2.26394 15.8693C2.44216 16.3366 2.65998 16.6693 3.00849 17.0178C3.35701 17.3663 3.68968 17.5801 4.15701 17.7623C4.50948 17.9009 5.03621 18.0633 6.01047 18.1069C7.06394 18.1544 7.37681 18.1663 10.0422 18.1663C12.7075 18.1663 13.0204 18.1544 14.0738 18.1069C15.0481 18.0633 15.5748 17.897 15.9273 17.7623C16.3946 17.5841 16.7273 17.3663 17.0758 17.0178C17.4243 16.6693 17.6382 16.3366 17.8204 15.8693C17.959 15.5168 18.1214 14.99 18.1649 14.0158C18.2125 12.9623 18.2243 12.6495 18.2243 9.9841C18.2243 7.31876 18.2125 7.00589 18.1649 5.95242C18.1214 4.97816 17.955 4.45143 17.8204 4.09896C17.6422 3.63163 17.4243 3.29896 17.0758 2.95044C16.7273 2.60193 16.3946 2.38806 15.9273 2.20589C15.5748 2.06727 15.0481 1.9049 14.0738 1.86133Z" fill="white"/>
</svg>
