<svg width="20" height="22" viewBox="0 0 20 22" fill="none" xmlns="http://www.w3.org/2000/svg">
<path fill-rule="evenodd" clip-rule="evenodd" d="M0.504946 21.3147L9.8176 12.0285L13.1002 15.3013L2.0295 21.4393C1.60857 21.6728 1.09301 21.6693 0.674726 21.4296L0.504946 21.3147ZM8.87849 11.092L0 19.9449V2.2392L8.87849 11.092ZM14.4267 7.43364L18.7642 9.83807C19.1904 10.0751 19.4548 10.519 19.4548 11.0001C19.4548 11.4811 19.1904 11.925 18.7642 12.162L14.3082 14.6319L10.7576 11.092L14.4267 7.43364ZM0.406786 0.771236C0.486376 0.6943 0.575686 0.627093 0.674726 0.570497C1.09301 0.330849 1.60857 0.327311 2.0295 0.56077L13.2187 6.76421L9.8176 10.1555L0.406786 0.771236Z" fill="#00D54B"/>
</svg>
