<svg width="18" height="30" viewBox="0 0 18 30" fill="none" xmlns="http://www.w3.org/2000/svg">
<path d="M8.30639 0.3505L0.248699 9.5638C-0.121001 9.9863 -0.0726002 10.6252 0.3545 10.9891C0.7822 11.3544 1.4283 11.3079 1.798 10.8853L7.9735 3.8232L7.9735 28.9891C7.9735 29.5471 8.43123 30 8.99679 30C9.56235 30 10.0201 29.5471 10.0201 28.9891L10.0201 3.5692L13.657 7.5945L16.1744 10.7391C16.525 11.1765 17.1684 11.2513 17.6118 10.9049C17.867 10.7054 18 10.4095 18 10.111C18 9.8913 17.9284 9.6702 17.779 9.4842L15.222 6.2945L9.84342 0.338301C9.64763 0.121301 9.36655 -0.002 9.07183 0C8.7778 0.0027 8.49877 0.1294 8.30639 0.3505Z" fill="#00D54B"/>
</svg>
